Coordinates
version=1
nRows=11
nColumns=40
inDegrees=yes

Units are S.I. units (second, meters, Newtons, ...)
Angles are in degrees.

endheader
time	pelvis_tilt	pelvis_list	pelvis_rotation	pelvis_tx	pelvis_ty	pelvis_tz	hip_flexion_r	hip_adduction_r	hip_rotation_r	knee_angle_r	knee_angle_r_beta	ankle_angle_r	subtalar_angle_r	mtp_angle_r	hip_flexion_l	hip_adduction_l	hip_rotation_l	knee_angle_l	knee_angle_l_beta	ankle_angle_l	subtalar_angle_l	mtp_angle_l	lumbar_extension	lumbar_bending	lumbar_rotation	arm_flex_r	arm_add_r	arm_rot_r	elbow_flex_r	pro_sup_r	wrist_flex_r	wrist_dev_r	arm_flex_l	arm_add_l	arm_rot_l	elbow_flex_l	pro_sup_l	wrist_flex_l	wrist_dev_l
     58.36650000	     -7.53783583	     -9.15653210	      1.26846040	      1.08379655	      0.91362893	      0.50760968	     -0.93792215	      9.20619968	    -17.74119524	      4.44616569	      4.44616569	     15.19816487	     13.69787809	     -3.27007366	     37.94464447	    -14.71811765	     -4.67153390	     20.30261243	     20.30261243	      5.57401088	     -8.86879913	     15.60631658	    -11.37558033	      8.54932595	      3.70919163	     46.74898980	    -16.14656217	      2.77681375	    102.50114456	     44.15586971	      0.00000000	      0.00000000	    -20.86510433	     -9.12358479	      0.51359382	     26.49594131	     45.45408865	      0.00000000	      0.00000000
     58.37800000	     -7.60069893	     -9.08103319	      1.08452702	      1.08541557	      0.91240751	      0.50537854	     -1.44082471	      8.91095364	    -17.54177538	      4.76684121	      4.76684121	     16.18206164	     13.81591564	     -1.92041365	     37.31435501	    -14.34822029	     -4.70446296	     20.27905362	     20.27905362	      3.49298152	    -10.21773635	     12.68680298	    -11.08236427	      8.45409260	      4.36238131	     46.55874427	    -16.30608854	      1.71531624	    106.14117618	     44.13604156	      0.00000000	      0.00000000	    -21.68801148	     -9.31613833	      0.88161885	     27.67788428	     45.40944150	      0.00000000	      0.00000000
     58.38950000	     -7.62146597	     -8.88779346	      0.85631320	      1.08700130	      0.91136796	      0.50305496	     -1.98381695	      8.47529682	    -17.21258704	      5.02302588	      5.02302588	     16.61021050	     13.81598549	     -1.94800506	     36.90604724	    -14.03631566	     -4.94874064	     20.98754256	     20.98754256	      2.92567056	    -10.76135013	     12.61537497	    -10.71460343	      8.25776378	      4.33200720	     47.23105374	    -15.91275689	      1.68180264	    107.02931372	     44.11605003	      0.00000000	      0.00000000	    -22.27838495	     -9.22386696	      0.95379743	     27.44144401	     45.39093865	      0.00000000	      0.00000000
     58.40100000	     -7.61640143	     -8.75607722	      0.74206615	      1.08847396	      0.91040544	      0.50048435	     -2.18253463	      8.00016323	    -16.97880787	      6.02767057	      6.02767057	     17.68216554	     13.34220777	     -0.97595896	     36.34872886	    -13.55360109	     -4.26797906	     21.31623022	     21.31623022	      1.17129495	    -12.62438191	     10.32356430	    -10.58915604	      8.15590202	      4.33560281	     47.28649457	    -15.35059354	      1.15304443	    110.58559365	     44.07011485	      0.00000000	      0.00000000	    -22.66547308	     -9.15810997	      1.41799571	     27.74456903	     45.34203826	      0.00000000	      0.00000000
     58.41250000	     -7.62598071	     -8.53204305	      0.57302275	      1.08988769	      0.90966119	      0.49796954	     -2.41750919	      7.44033066	    -16.71029511	      6.85463114	      6.85463114	     18.21395663	     12.96440538	     -0.82709699	     36.07686514	    -13.21148605	     -4.14746187	     22.26165857	     22.26165857	      0.66310841	    -13.40826328	      9.68110916	    -10.33677202	      7.90970250	      4.07818450	     47.61027625	    -14.71529304	      1.10218931	    112.11965632	     44.04187530	      0.00000000	      0.00000000	    -22.96384212	     -9.00417896	      1.64271928	     27.56254267	     45.31495638	      0.00000000	      0.00000000
     58.42400000	     -7.53453073	     -8.31297670	      0.44032027	      1.09124556	      0.90928865	      0.49529137	     -2.63010769	      6.84364742	    -16.43681207	      7.90926800	      7.90926800	     18.73360779	     12.44901026	     -0.77261074	     35.74334581	    -12.86806506	     -3.87372610	     23.26646872	     23.26646872	      0.48090514	    -14.23697372	      9.14865143	    -10.23197754	      7.68194972	      3.89839358	     47.77484732	    -14.30242113	      0.98197575	    113.60987426	     44.01250580	      0.00000000	      0.00000000	    -22.99511210	     -8.88876232	      1.78304414	     27.48817769	     45.30243143	      0.00000000	      0.00000000
     58.43550000	     -7.45415588	     -8.03893511	      0.32589576	      1.09246933	      0.90921000	      0.49248663	     -2.68688008	      6.14284066	    -16.11528397	      9.20489236	      9.20489236	     19.17021392	     11.81526657	     -0.75213207	     35.42867748	    -12.48075878	     -3.63247952	     24.25284550	     24.25284550	      0.56636428	    -14.95760061	      8.64483147	    -10.15378647	      7.40764162	      3.74292319	     47.65578562	    -13.99841281	      0.82101233	    115.15833959	     43.98147456	      0.00000000	      0.00000000	    -22.84772200	     -8.81377741	      1.90384658	     27.41228688	     45.29638055	      0.00000000	      0.00000000
     58.44700000	     -7.40270356	     -7.73800231	      0.22573037	      1.09360774	      0.90948017	      0.48962334	     -2.59115269	      5.39257697	    -15.72321424	     10.70381522	     10.70381522	     19.64999397	     10.97587956	     -0.38635864	     35.07701722	    -12.06766918	     -3.43244663	     25.09481474	     25.09481474	      0.85782534	    -15.57729328	      8.11525625	    -10.07862167	      7.05714362	      4.24366590	     46.83122776	    -14.42068480	     -0.01180854	    117.67362712	     43.97226113	      0.00000000	      0.00000000	    -22.05485393	     -8.93448571	      2.27470153	     27.04044707	     45.29235878	      0.00000000	      0.00000000
     58.45850000	     -7.29815146	     -7.45923031	      0.16807656	      1.09460253	      0.91008873	      0.48657342	     -2.39946327	      4.60326065	    -15.49396339	     12.44502563	     12.44502563	     19.82109627	     10.25973911	     -0.72149797	     34.69161788	    -11.70922338	     -3.41934192	     25.93988865	     25.93988865	      1.55229534	    -15.81434913	      7.79397954	    -10.05038308	      6.79574871	      3.87113134	     46.52380752	    -14.06826749	      0.00610370	    118.66679874	     43.95101931	      0.00000000	      0.00000000	    -21.58594972	     -8.80035872	      2.42506932	     26.94906390	     45.28803664	      0.00000000	      0.00000000
     58.47000000	     -7.21884163	     -7.16332774	      0.12272913	      1.09548293	      0.91099627	      0.48343905	     -2.01755621	      3.75758542	    -15.21307614	     14.45299691	     14.45299691	     19.80600166	      9.37689650	     -1.25819390	     34.22787335	    -11.32260068	     -3.51130478	     26.57440397	     26.57440397	      2.38637544	    -15.94963649	      7.59750507	    -10.01206089	      6.51360221	      3.63209804	     45.83925346	    -13.99045356	     -0.05496572	    119.72600181	     43.92921030	      0.00000000	      0.00000000	    -20.89555303	     -8.74567714	      2.53605735	     26.88105584	     45.29440384	      0.00000000	      0.00000000
     58.48150000	     -7.08509298	     -6.89427392	      0.07660707	      1.09632783	      0.91229010	      0.48022333	     -1.60675797	      2.91616082	    -14.90905372	     16.58567430	     16.58567430	     19.56198174	      8.50341518	     -1.91802353	     33.59502230	    -10.95611274	     -3.67236278	     27.00888570	     27.00888570	      3.30158820	    -15.99462466	      7.38311143	    -10.03416109	      6.28946078	      3.40421114	     44.94122221	    -14.00017439	     -0.09708672	    120.54742630	     43.91021692	      0.00000000	      0.00000000	    -20.10045479	     -8.73226434	      2.60466387	     26.87627314	     45.30643274	      0.00000000	      0.00000000
